<svg width="89" height="53" viewBox="0 0 89 53" fill="none" xmlns="http://www.w3.org/2000/svg">
<rect x="33.68" y="9.82239" width="19.86" height="20.9801" rx="4.25" fill="white" stroke="white" stroke-width="1.5"/>
<rect x="35.46" y="12.3918" width="15.7523" height="9.24627" rx="4.25" fill="#BC0B2A" stroke="white" stroke-width="1.5"/>
<path d="M37.8252 23.1381C39.1269 23.1382 40.1905 24.2017 40.1905 25.5228C40.1902 26.8438 39.1268 27.9065 37.8252 27.9066C36.5236 27.9066 35.4602 26.8438 35.46 25.5228C35.46 24.2016 36.5235 23.1381 37.8252 23.1381Z" fill="#BC0B2A" stroke="white" stroke-width="1.5"/>
<path d="M49.3952 23.1381C50.6969 23.1382 51.7605 24.2017 51.7605 25.5228C51.7602 26.8438 50.6968 27.9065 49.3952 27.9066C48.0936 27.9066 47.0302 26.8438 47.03 25.5228C47.03 24.2016 48.0934 23.1381 49.3952 23.1381Z" fill="#BC0B2A" stroke="white" stroke-width="1.5"/>
<rect x="39.6431" y="6.51139" width="1.22057" height="2.56103" fill="white"/>
<rect width="1.12887" height="6.83131" rx="0.564436" transform="matrix(0.794285 0.607546 -0.744526 0.667594 39.0965 30.5744)" fill="white"/>
<rect width="1.12887" height="6.83131" rx="0.564436" transform="matrix(0.794285 -0.607546 -0.744526 -0.667594 53.2732 35.7992)" fill="white"/>
<rect x="46.0511" y="6.51139" width="1.22057" height="2.56103" fill="white"/>
<rect x="37.2019" y="5.37314" width="12.5109" height="1.13823" rx="0.569117" fill="white"/>
<rect x="36.5917" y="32.6908" width="14.6469" height="0.853676" rx="0.426838" fill="white"/>
<path d="M43.5 0.5C58.4385 0.5 70.5 11.9428 70.5 26C70.5 40.0572 58.4385 51.5 43.5 51.5C28.5615 51.5 16.5 40.0572 16.5 26C16.5 11.9428 28.5615 0.5 43.5 0.5Z" stroke="white"/>
<rect y="36" width="89" height="16" fill="#9A0923"/>
<path d="M18.6816 41.4688L20.6621 45.541L22.6426 41.4688H24.2715L21.4004 46.8594V50H19.918V46.8594L17.0469 41.4688H18.6816ZM26.123 41.4688L28.1035 45.541L30.084 41.4688H31.7129L28.8418 46.8594V50H27.3594V46.8594L24.4883 41.4688H26.123ZM37.5078 47.2227H38.9727C38.9258 47.7812 38.7695 48.2793 38.5039 48.7168C38.2383 49.1504 37.8652 49.4922 37.3848 49.7422C36.9043 49.9922 36.3203 50.1172 35.6328 50.1172C35.1055 50.1172 34.6309 50.0234 34.209 49.8359C33.7871 49.6445 33.4258 49.375 33.125 49.0273C32.8242 48.6758 32.5938 48.252 32.4336 47.7559C32.2773 47.2598 32.1992 46.7051 32.1992 46.0918V45.3828C32.1992 44.7695 32.2793 44.2148 32.4395 43.7188C32.6035 43.2227 32.8379 42.7988 33.1426 42.4473C33.4473 42.0918 33.8125 41.8203 34.2383 41.6328C34.668 41.4453 35.1504 41.3516 35.6855 41.3516C36.3652 41.3516 36.9395 41.4766 37.4082 41.7266C37.877 41.9766 38.2402 42.3223 38.498 42.7637C38.7598 43.2051 38.9199 43.7109 38.9785 44.2812H37.5137C37.4746 43.9141 37.3887 43.5996 37.2559 43.3379C37.127 43.0762 36.9355 42.877 36.6816 42.7402C36.4277 42.5996 36.0957 42.5293 35.6855 42.5293C35.3496 42.5293 35.0566 42.5918 34.8066 42.7168C34.5566 42.8418 34.3477 43.0254 34.1797 43.2676C34.0117 43.5098 33.8848 43.8086 33.7988 44.1641C33.7168 44.5156 33.6758 44.918 33.6758 45.3711V46.0918C33.6758 46.5215 33.7129 46.9121 33.7871 47.2637C33.8652 47.6113 33.9824 47.9102 34.1387 48.1602C34.2988 48.4102 34.502 48.6035 34.748 48.7402C34.9941 48.877 35.2891 48.9453 35.6328 48.9453C36.0508 48.9453 36.3887 48.8789 36.6465 48.7461C36.9082 48.6133 37.1055 48.4199 37.2383 48.166C37.375 47.9082 37.4648 47.5938 37.5078 47.2227ZM43.6426 41.4688V50H42.1836V41.4688H43.6426ZM46.3203 41.4688V42.6406H39.5293V41.4688H46.3203ZM48.3008 44.8672V50H46.8887V43.6602H48.2363L48.3008 44.8672ZM50.2402 43.6191L50.2285 44.9316C50.1426 44.916 50.0488 44.9043 49.9473 44.8965C49.8496 44.8887 49.752 44.8848 49.6543 44.8848C49.4121 44.8848 49.1992 44.9199 49.0156 44.9902C48.832 45.0566 48.6777 45.1543 48.5527 45.2832C48.4316 45.4082 48.3379 45.5605 48.2715 45.7402C48.2051 45.9199 48.166 46.1211 48.1543 46.3438L47.832 46.3672C47.832 45.9688 47.8711 45.5996 47.9492 45.2598C48.0273 44.9199 48.1445 44.6211 48.3008 44.3633C48.4609 44.1055 48.6602 43.9043 48.8984 43.7598C49.1406 43.6152 49.4199 43.543 49.7363 43.543C49.8223 43.543 49.9141 43.5508 50.0117 43.5664C50.1133 43.582 50.1895 43.5996 50.2402 43.6191ZM54.4883 48.7285V45.7051C54.4883 45.4785 54.4473 45.2832 54.3652 45.1191C54.2832 44.9551 54.1582 44.8281 53.9902 44.7383C53.8262 44.6484 53.6191 44.6035 53.3691 44.6035C53.1387 44.6035 52.9395 44.6426 52.7715 44.7207C52.6035 44.7988 52.4727 44.9043 52.3789 45.0371C52.2852 45.1699 52.2383 45.3203 52.2383 45.4883H50.832C50.832 45.2383 50.8926 44.9961 51.0137 44.7617C51.1348 44.5273 51.3105 44.3184 51.541 44.1348C51.7715 43.9512 52.0469 43.8066 52.3672 43.7012C52.6875 43.5957 53.0469 43.543 53.4453 43.543C53.9219 43.543 54.3438 43.623 54.7109 43.7832C55.082 43.9434 55.373 44.1855 55.584 44.5098C55.7988 44.8301 55.9062 45.2324 55.9062 45.7168V48.5352C55.9062 48.8242 55.9258 49.084 55.9648 49.3145C56.0078 49.541 56.0684 49.7383 56.1465 49.9062V50H54.6992C54.6328 49.8477 54.5801 49.6543 54.541 49.4199C54.5059 49.1816 54.4883 48.9512 54.4883 48.7285ZM54.6934 46.1445L54.7051 47.0176H53.6914C53.4297 47.0176 53.1992 47.043 53 47.0938C52.8008 47.1406 52.6348 47.2109 52.502 47.3047C52.3691 47.3984 52.2695 47.5117 52.2031 47.6445C52.1367 47.7773 52.1035 47.9277 52.1035 48.0957C52.1035 48.2637 52.1426 48.418 52.2207 48.5586C52.2988 48.6953 52.4121 48.8027 52.5605 48.8809C52.7129 48.959 52.8965 48.998 53.1113 48.998C53.4004 48.998 53.6523 48.9395 53.8672 48.8223C54.0859 48.7012 54.2578 48.5547 54.3828 48.3828C54.5078 48.207 54.5742 48.041 54.582 47.8848L55.0391 48.5117C54.9922 48.6719 54.9121 48.8438 54.7988 49.0273C54.6855 49.2109 54.5371 49.3867 54.3535 49.5547C54.1738 49.7188 53.957 49.8535 53.7031 49.959C53.4531 50.0645 53.1641 50.1172 52.8359 50.1172C52.4219 50.1172 52.0527 50.0352 51.7285 49.8711C51.4043 49.7031 51.1504 49.4785 50.9668 49.1973C50.7832 48.9121 50.6914 48.5898 50.6914 48.2305C50.6914 47.8945 50.7539 47.5977 50.8789 47.3398C51.0078 47.0781 51.1953 46.8594 51.4414 46.6836C51.6914 46.5078 51.9961 46.375 52.3555 46.2852C52.7148 46.1914 53.125 46.1445 53.5859 46.1445H54.6934ZM59.9727 48.9922C60.2031 48.9922 60.4102 48.9473 60.5938 48.8574C60.7812 48.7637 60.9316 48.6348 61.0449 48.4707C61.1621 48.3066 61.2266 48.1172 61.2383 47.9023H62.5684C62.5605 48.3125 62.4395 48.6855 62.2051 49.0215C61.9707 49.3574 61.6602 49.625 61.2734 49.8242C60.8867 50.0195 60.459 50.1172 59.9902 50.1172C59.5059 50.1172 59.084 50.0352 58.7246 49.8711C58.3652 49.7031 58.0664 49.4727 57.8281 49.1797C57.5898 48.8867 57.4102 48.5488 57.2891 48.166C57.1719 47.7832 57.1133 47.373 57.1133 46.9355V46.7305C57.1133 46.293 57.1719 45.8828 57.2891 45.5C57.4102 45.1133 57.5898 44.7734 57.8281 44.4805C58.0664 44.1875 58.3652 43.959 58.7246 43.7949C59.084 43.627 59.5039 43.543 59.9844 43.543C60.4922 43.543 60.9375 43.6445 61.3203 43.8477C61.7031 44.0469 62.0039 44.3262 62.2227 44.6855C62.4453 45.041 62.5605 45.4551 62.5684 45.9277H61.2383C61.2266 45.6934 61.168 45.4824 61.0625 45.2949C60.9609 45.1035 60.8164 44.9512 60.6289 44.8379C60.4453 44.7246 60.2246 44.668 59.9668 44.668C59.6816 44.668 59.4453 44.7266 59.2578 44.8438C59.0703 44.957 58.9238 45.1133 58.8184 45.3125C58.7129 45.5078 58.6367 45.7285 58.5898 45.9746C58.5469 46.2168 58.5254 46.4688 58.5254 46.7305V46.9355C58.5254 47.1973 58.5469 47.4512 58.5898 47.6973C58.6328 47.9434 58.707 48.1641 58.8125 48.3594C58.9219 48.5508 59.0703 48.7051 59.2578 48.8223C59.4453 48.9355 59.6836 48.9922 59.9727 48.9922ZM65.0762 41V50H63.6582V41H65.0762ZM69.0137 43.6602L66.2539 46.7188L64.7422 48.2656L64.373 47.0703L65.5156 45.6582L67.3086 43.6602H69.0137ZM67.6133 50L65.5566 47.0234L66.4473 46.0332L69.248 50H67.6133Z" fill="white"/>
</svg>
