<svg width="66" height="61" viewBox="0 0 66 61" fill="none" xmlns="http://www.w3.org/2000/svg">
<path d="M29.1836 8.94141C30.9459 6.1202 35.0541 6.12021 36.8164 8.94141L54.5732 37.3662C56.4451 40.3634 54.2897 44.25 50.7559 44.25H15.2432C11.7096 44.2496 9.55495 40.3633 11.4268 37.3662L29.1836 8.94141Z" stroke="#BC0B2A" stroke-width="3"/>
<path d="M35.3027 14.4062L34.8809 32.459H31.2598L30.8203 14.4062H35.3027ZM30.6973 37.9961C30.6973 37.3516 30.9082 36.8125 31.3301 36.3789C31.7637 35.9336 32.3613 35.7109 33.123 35.7109C33.873 35.7109 34.4648 35.9336 34.8984 36.3789C35.332 36.8125 35.5488 37.3516 35.5488 37.9961C35.5488 38.6172 35.332 39.1504 34.8984 39.5957C34.4648 40.0293 33.873 40.2461 33.123 40.2461C32.3613 40.2461 31.7637 40.0293 31.3301 39.5957C30.9082 39.1504 30.6973 38.6172 30.6973 37.9961Z" fill="#BC0B2A"/>
</svg>
