<svg width="37" height="48" viewBox="0 0 37 48" fill="none" xmlns="http://www.w3.org/2000/svg">
<rect x="1.5" y="7.33154" width="34" height="32.4393" rx="3.5" fill="white" stroke="#BC0B2A" stroke-width="3"/>
<rect x="6.78577" y="11.8179" width="23.4286" height="10.0093" rx="3.5" fill="white" stroke="#BC0B2A" stroke-width="3"/>
<path d="M8.98596 28.8643C10.441 28.8643 11.1862 29.8204 11.1862 30.5049C11.1858 31.1894 10.4407 32.1444 8.98596 32.1445C7.53111 32.1445 6.78608 31.1894 6.78577 30.5049C6.78577 29.8203 7.5308 28.8643 8.98596 28.8643Z" fill="white" stroke="#BC0B2A" stroke-width="3"/>
<path d="M28.0146 28.8643C29.4696 28.8643 30.2148 29.8204 30.2148 30.5049C30.2145 31.1894 29.4693 32.1444 28.0146 32.1445C26.5597 32.1445 25.8147 31.1894 25.8144 30.5049C25.8144 29.8203 26.5594 28.8643 28.0146 28.8643Z" fill="white" stroke="#BC0B2A" stroke-width="3"/>
<rect x="11.6285" y="1.79443" width="2.11429" height="4.03738" fill="#BC0B2A"/>
<rect width="1.89245" height="11.3714" rx="0.946226" transform="matrix(0.820723 0.571327 -0.774765 0.632249 10.6816 39.729)" fill="#BC0B2A"/>
<rect width="1.89245" height="11.3714" rx="0.946226" transform="matrix(0.820723 -0.571327 -0.774765 -0.632249 35.2386 47.9658)" fill="#BC0B2A"/>
<rect x="22.7286" y="1.79443" width="2.11429" height="4.03738" fill="#BC0B2A"/>
<rect x="7.3999" width="21.6714" height="1.79439" rx="0.897196" fill="#BC0B2A"/>
<rect x="6.34283" y="43.0654" width="25.3714" height="1.34579" rx="0.672897" fill="#BC0B2A"/>
</svg>
